PathFileType	4	(X/Y/Z)	D:\telocate\uwb05-Unnamed.trc
DataRate	CameraRate	NumFrames	NumMarkers	Units	OrigDataRate	OrigDataStartFrame	OrigNumFrames
100.00	100.00	      242	0	mm	100.00	1	      8235
Frame#	Time	
		

1	0.000	-1133.81250	-1005.49463	1230.88464	
2	0.010	-1133.22888	-1006.78918	1231.09583	
3	0.020	-1132.58496	-1008.14795	1231.24573	
4	0.030	-1132.22803	-1009.55280	1231.34814	
5	0.040	-1131.68298	-1011.07971	1231.59131	
6	0.050	-1131.34570	-1013.06281	1231.70508	
7	0.060	-1130.84229	-1014.34802	1231.64990	
8	0.070	-1130.45361	-1016.05151	1231.73853	
9	0.080	-1130.18408	-1018.26904	1232.14209	
10	0.090	-1129.61096	-1019.68835	1232.10522	
11	0.100	-1129.43164	-1021.51898	1232.34631	
12	0.110	-1129.28052	-1022.81598	1232.54834	
13	0.120	-1129.54126	-1024.13696	1232.44617	
14	0.130	-1129.52380	-1025.87622	1232.48401	
15	0.140	-1129.40869	-1027.20789	1232.77930	
16	0.150	-1129.71448	-1028.62915	1232.87146	
17	0.160	-1130.16968	-1030.11877	1233.04468	
18	0.170	-1130.47632	-1032.06152	1233.43115	
19	0.180	-1130.66321	-1033.67773	1233.48584	
20	0.190	-1130.93115	-1035.43896	1233.47449	
21	0.200	-1131.29688	-1037.90625	1233.47742	
22	0.210	-1131.64172	-1040.95935	1233.84607	
23	0.220	-1132.06311	-1043.69922	1234.01208	
24	0.230	-1132.48486	-1046.20129	1234.38708	
25	0.240	-1132.87830	-1048.52454	1234.59851	
26	0.250	-1133.67151	-1051.69312	1234.74756	
27	0.260	-1133.94202	-1054.85596	1234.85962	
28	0.270	-1135.06396	-1058.73328	1235.27722	
29	0.280	-1135.12085	-1061.14319	1235.07141	
30	0.290	-1136.08533	-1063.99414	1235.38745	
31	0.300	-1136.74927	-1066.96045	1235.49377	
32	0.310	-1137.35815	-1069.72766	1235.53125	
33	0.320	-1138.02148	-1072.76172	1235.52612	
34	0.330	-1138.82996	-1075.27124	1235.66882	
35	0.340	-1139.44714	-1078.23010	1235.87793	
36	0.350	-1140.63232	-1081.15833	1236.27490	
37	0.360	-1141.22217	-1083.96497	1236.34277	
38	0.370	-1141.94690	-1086.92883	1236.26917	
39	0.380	-1142.67017	-1089.74841	1236.42151	
40	0.390	-1142.88721	-1093.34314	1236.50916	
41	0.400	-1143.17920	-1095.74219	1236.18750	
42	0.410	-1143.69617	-1098.69128	1236.43628	
43	0.420	-1143.57861	-1101.38818	1236.34656	
44	0.430	-1144.38159	-1103.86621	1236.41272	
45	0.440	-1144.51257	-1106.06665	1236.63110	
46	0.450	-1144.85291	-1108.65686	1236.69812	
47	0.460	-1145.30945	-1111.43921	1236.75659	
48	0.470	-1145.58569	-1113.48865	1236.63245	
49	0.480	-1145.53552	-1115.61536	1236.53491	
50	0.490	-1145.85217	-1117.74500	1236.64258	
51	0.500	-1146.44910	-1119.47046	1236.68323	
52	0.510	-1146.67468	-1121.58154	1236.69556	
53	0.520	-1147.15649	-1123.67090	1236.75146	
54	0.530	-1147.50330	-1125.38928	1236.60693	
55	0.540	-1148.18640	-1127.03125	1237.16138	
56	0.550	-1148.48181	-1128.12732	1236.93127	
57	0.560	-1148.64783	-1129.45166	1236.53638	
58	0.570	-1148.87146	-1130.95764	1236.26477	
59	0.580	-1149.69836	-1132.17468	1236.61133	
60	0.590	-1149.84705	-1133.38171	1236.57996	
61	0.600	-1150.49719	-1134.81653	1237.07190	
62	0.610	-1150.76172	-1135.43689	1236.81433	
63	0.620	-1151.01074	-1136.23694	1236.79724	
64	0.630	-1151.36414	-1137.17542	1236.91492	
65	0.640	-1151.71082	-1137.67639	1236.80786	
66	0.650	-1152.33069	-1138.92834	1237.04041	
67	0.660	-1152.45215	-1139.38696	1237.19666	
68	0.670	-1152.76733	-1139.78308	1237.14001	
69	0.680	-1153.03394	-1140.38440	1237.20776	
70	0.690	-1153.14612	-1140.60352	1237.15344	
71	0.700	-1153.38489	-1140.97607	1237.12073	
72	0.710	-1153.58289	-1141.18689	1237.09937	
73	0.720	-1153.78735	-1141.43042	1236.99634	
74	0.730	-1153.88037	-1141.41321	1236.79004	
75	0.740	-1154.16553	-1141.64551	1236.72266	
76	0.750	-1154.22559	-1141.76233	1236.65405	
77	0.760	-1154.40613	-1141.89551	1236.53967	
78	0.770	-1154.52698	-1142.09387	1236.57813	
79	0.780	-1154.65491	-1142.18201	1236.63416	
80	0.790	-1154.59204	-1142.16956	1236.54395	
81	0.800	-1154.66431	-1142.16382	1236.63696	
82	0.810	-1154.65967	-1142.07251	1236.73364	
83	0.820	-1154.67175	-1141.86340	1236.61548	
84	0.830	-1154.45740	-1141.68213	1236.52637	
85	0.840	-1154.33630	-1141.52014	1236.68652	
86	0.850	-1154.33032	-1141.46399	1236.93164	
87	0.860	-1154.31653	-1141.06006	1237.00134	
88	0.870	-1154.33545	-1140.48645	1236.94983	
89	0.880	-1154.25183	-1139.99194	1236.97510	
90	0.890	-1153.89844	-1139.61401	1236.97522	
91	0.900	-1153.75427	-1139.36267	1236.99194	
92	0.910	-1153.35938	-1137.97571	1236.90271	
93	0.920	-1153.21204	-1137.41907	1236.74390	
94	0.930	-1152.79956	-1137.07446	1236.73010	
95	0.940	-1152.52478	-1136.19043	1236.72913	
96	0.950	-1152.29517	-1135.50903	1236.80664	
97	0.960	-1152.14319	-1134.69751	1236.80920	
98	0.970	-1152.09204	-1133.76831	1236.82544	
99	0.980	-1152.05957	-1133.13757	1236.79382	
100	0.990	-1151.91150	-1132.48682	1236.75476	
101	1.000	-1151.41931	-1131.74561	1236.45569	
102	1.010	-1151.60730	-1130.75928	1236.60962	
103	1.020	-1151.16467	-1130.06763	1236.48926	
104	1.030	-1150.98938	-1129.41040	1236.79675	
105	1.040	-1151.01648	-1128.69336	1236.70459	
106	1.050	-1151.07825	-1128.52002	1236.73572	
107	1.060	-1151.22217	-1128.34497	1236.72974	
108	1.070	-1151.23840	-1128.35571	1236.70801	
109	1.080	-1151.29541	-1128.53320	1236.75439	
110	1.090	-1151.44141	-1128.91272	1236.63977	
111	1.100	-1151.67334	-1129.84399	1236.49805	
112	1.110	-1151.96716	-1130.48389	1236.50464	
113	1.120	-1152.71045	-1131.83252	1236.85022	
114	1.130	-1152.84131	-1133.01538	1236.89844	
115	1.140	-1153.29358	-1135.04614	1237.21436	
116	1.150	-1153.68726	-1136.62524	1236.95850	
117	1.160	-1154.43652	-1138.68677	1237.08203	
118	1.170	-1155.00183	-1141.21851	1237.13037	
119	1.180	-1155.53552	-1143.23389	1236.86047	
120	1.190	-1156.33057	-1145.56091	1236.54565	
121	1.200	-1156.71875	-1148.48145	1236.59363	
122	1.210	-1157.24121	-1151.45300	1236.70691	
123	1.220	-1157.82886	-1155.00110	1236.96631	
124	1.230	-1158.00671	-1158.02161	1236.79443	
125	1.240	-1158.27759	-1160.68787	1236.95422	
126	1.250	-1158.42480	-1162.76965	1237.01074	
127	1.260	-1158.45898	-1165.62720	1237.30396	
128	1.270	-1158.55640	-1167.67188	1237.75476	
129	1.280	-1158.66211	-1169.43982	1237.71704	
130	1.290	-1158.33435	-1171.16113	1237.55371	
131	1.300	-1158.40991	-1172.68359	1237.44495	
132	1.310	-1158.41724	-1174.43921	1237.54663	
133	1.320	-1158.55542	-1176.63318	1237.98853	
134	1.330	-1159.03088	-1179.70117	1238.04175	
135	1.340	-1159.57080	-1184.09436	1237.75537	
136	1.350	-1158.78479	-1189.39929	1237.67480	
137	1.360	-1159.27698	-1195.20422	1238.43237	
138	1.370	-1158.84729	-1200.17883	1237.69702	
139	1.380	-1158.91150	-1206.85510	1238.06335	
140	1.390	-1158.23804	-1212.34167	1237.82007	
141	1.400	-1158.12988	-1218.00110	1237.37305	
142	1.410	-1157.78601	-1224.76978	1236.71802	
143	1.420	-1158.04663	-1231.10876	1236.46777	
144	1.430	-1158.48193	-1237.93726	1236.63843	
145	1.440	-1157.84070	-1244.52344	1236.24268	
146	1.450	-1158.08374	-1251.45056	1236.30298	
147	1.460	-1157.83801	-1258.72314	1236.15686	
148	1.470	-1157.64539	-1265.19824	1235.69263	
149	1.480	-1157.38037	-1271.94250	1235.22766	
150	1.490	-1157.03857	-1277.76917	1234.94788	
151	1.500	-1157.19067	-1283.95959	1234.43555	
152	1.510	-1156.92297	-1289.82642	1233.86926	
153	1.520	-1156.93823	-1296.06604	1233.19995	
154	1.530	-1157.14465	-1302.92334	1232.61365	
155	1.540	-1157.36108	-1309.70984	1232.17627	
156	1.550	-1157.38831	-1316.06494	1231.70886	
157	1.560	-1157.51770	-1322.52649	1231.59351	
158	1.570	-1156.83679	-1328.69739	1230.66431	
159	1.580	-1157.04321	-1334.82703	1230.52161	
160	1.590	-1157.15283	-1340.36646	1230.09448	
161	1.600	-1156.62903	-1345.22925	1229.44800	
162	1.610	-1156.83435	-1349.87256	1229.45837	
163	1.620	-1156.19495	-1354.78967	1229.27625	
164	1.630	-1155.76599	-1359.67908	1229.17004	
165	1.640	-1154.96228	-1363.58533	1228.83752	
166	1.650	-1154.48254	-1367.88232	1228.88464	
167	1.660	-1153.05713	-1371.88440	1228.60669	
168	1.670	-1152.06885	-1377.13379	1228.40381	
169	1.680	-1151.78845	-1381.64929	1228.79822	
170	1.690	-1150.65222	-1385.44690	1228.12317	
171	1.700	-1149.85120	-1391.46045	1228.39514	
172	1.710	-1148.17407	-1395.48706	1227.61194	
173	1.720	-1147.71912	-1400.57202	1227.66541	
174	1.730	-1146.15137	-1405.70728	1227.28003	
175	1.740	-1145.00012	-1410.63281	1227.20825	
176	1.750	-1144.11707	-1415.30164	1227.08484	
177	1.760	-1141.89868	-1420.04065	1226.88696	
178	1.770	-1140.04700	-1425.75464	1227.05664	
179	1.780	-1137.95447	-1430.97864	1226.44141	
180	1.790	-1135.12720	-1435.87756	1225.97461	
181	1.800	-1132.84167	-1441.70959	1226.00916	
182	1.810	-1130.15356	-1446.79480	1225.27014	
183	1.820	-1127.09302	-1453.34216	1225.43896	
184	1.830	-1124.09790	-1458.43848	1224.71729	
185	1.840	-1120.84290	-1465.83960	1224.34497	
186	1.850	-1117.80872	-1471.67346	1223.98083	
187	1.860	-1114.42285	-1479.36963	1223.91003	
188	1.870	-1111.56458	-1486.24963	1223.47058	
189	1.880	-1107.92712	-1493.74255	1222.87476	
190	1.890	-1104.39868	-1500.54651	1221.98511	
191	1.900	-1100.59839	-1507.85620	1221.44482	
192	1.910	-1097.52039	-1515.44617	1221.56384	
193	1.920	-1093.14709	-1522.15247	1220.73071	
194	1.930	-1089.24170	-1529.97522	1220.73999	
195	1.940	-1085.44202	-1537.46692	1220.72900	
196	1.950	-1081.52393	-1544.50403	1220.36182	
197	1.960	-1077.22522	-1552.50134	1220.32300	
198	1.970	-1073.36816	-1559.80310	1220.12646	
199	1.980	-1068.65759	-1567.57959	1219.96765	
200	1.990	-1064.37830	-1574.88147	1219.83154	
201	2.000	-1060.05737	-1582.06409	1219.63879	
202	2.010	-1055.66748	-1590.56384	1220.04663	
203	2.020	-1051.82471	-1597.61548	1220.23083	
204	2.030	-1047.20325	-1604.76196	1219.84326	
205	2.040	-1043.08960	-1612.75220	1220.12646	
206	2.050	-1039.20825	-1620.07288	1220.70813	
207	2.060	-1034.92017	-1627.31189	1220.78906	
208	2.070	-1030.88232	-1634.62390	1221.45129	
209	2.080	-1026.21472	-1642.73804	1221.37231	
210	2.090	-1021.69818	-1650.04663	1221.70984	
211	2.100	-1016.92126	-1658.12964	1221.96582	
212	2.110	-1011.95740	-1665.51965	1221.43579	
213	2.120	-1006.87061	-1673.94238	1221.88721	
214	2.130	-1002.14563	-1681.70337	1221.79272	
215	2.140	-997.01410	-1689.11011	1221.59351	
216	2.150	-991.51318	-1697.41296	1221.41455	
217	2.160	-986.60529	-1704.87744	1221.69946	
218	2.170	-981.09271	-1712.32251	1221.43359	
219	2.180	-976.10309	-1720.01001	1221.28076	
220	2.190	-970.50751	-1727.38196	1221.48584	
221	2.200	-965.15027	-1734.50098	1221.47913	
222	2.210	-959.65106	-1742.24463	1221.30078	
223	2.220	-953.91870	-1749.36633	1221.40564	
224	2.230	-948.85175	-1756.06995	1221.73865	
225	2.240	-942.86237	-1763.28455	1221.74561	
226	2.250	-937.65234	-1769.12073	1221.60107	
227	2.260	-932.04370	-1776.50183	1222.20251	
228	2.270	-926.11975	-1783.17798	1222.45801	
229	2.280	-920.38721	-1789.57507	1222.67126	
230	2.290	-914.15704	-1796.14697	1222.58228	
231	2.300	-908.23187	-1803.08997	1223.37695	
232	2.310	-902.62750	-1809.53076	1223.51099	
233	2.320	-896.72522	-1816.27356	1223.41052	
234	2.330	-890.59631	-1822.82275	1223.35938	
235	2.340	-884.11957	-1830.85901	1223.72144	
236	2.350	-877.97754	-1837.61414	1223.17383	
237	2.360	-871.89410	-1844.94507	1223.16528	
238	2.370	-865.40228	-1852.23657	1223.04480	
239	2.380	-859.12952	-1858.75244	1222.86987	
240	2.390	-853.00311	-1865.83362	1222.54736	
241	2.400	-845.86707	-1873.47754	1222.60205	
242	2.410	-838.96149	-1880.74341	1221.97986	
